<?xml version="1.0" encoding="UTF-8" standalone="no"?>
<!-- Created with Inkscape (http://www.inkscape.org/) -->

<svg
   width="70mm"
   height="100mm"
   viewBox="0 0 210 297"
   version="1.1"
   id="svg2893"
   xml:space="preserve"
   sodipodi:docname="logo_AIIM_1.svg"
   inkscape:version="1.2.2 (732a01da63, 2022-12-09)"
   inkscape:export-filename="Users\Yatharth Pal\Downloads\logo_AIIM_1.png"
   inkscape:export-xdpi="300"
   inkscape:export-ydpi="300"
   xmlns:inkscape="http://www.inkscape.org/namespaces/inkscape"
   xmlns:sodipodi="http://sodipodi.sourceforge.net/DTD/sodipodi-0.dtd"
   xmlns="http://www.w3.org/2000/svg"
   xmlns:svg="http://www.w3.org/2000/svg"><sodipodi:namedview
     id="namedview2895"
     pagecolor="#ffffff"
     bordercolor="#000000"
     borderopacity="0.25"
     inkscape:showpageshadow="2"
     inkscape:pageopacity="0"
     inkscape:pagecheckerboard="0"
     inkscape:deskcolor="#d1d1d1"
     inkscape:document-units="mm"
     showgrid="false"
     inkscape:zoom="1.0916486"
     inkscape:cx="314.6617"
     inkscape:cy="568.40635"
     inkscape:window-width="1920"
     inkscape:window-height="1051"
     inkscape:window-x="-9"
     inkscape:window-y="-9"
     inkscape:window-maximized="1"
     inkscape:current-layer="layer1"
     showguides="true"><sodipodi:guide
       position="-11.482578,254.66871"
       orientation="1,0"
       id="guide21591"
       inkscape:locked="false" /></sodipodi:namedview><defs
     id="defs2890"><inkscape:path-effect
       effect="powerstroke"
       id="path-effect9280"
       is_visible="true"
       lpeversion="1"
       offset_points="0.83796895,0.71484721 | 1.4985907,2.6376859 | 2.4742656,-1.8554745"
       not_jump="false"
       sort_points="true"
       interpolator_type="CentripetalCatmullRom"
       interpolator_beta="0.2"
       start_linecap_type="zerowidth"
       linejoin_type="round"
       miter_limit="4"
       scale_width="1"
       end_linecap_type="zerowidth" /><inkscape:path-effect
       effect="powerstroke"
       id="path-effect9278"
       is_visible="true"
       lpeversion="1"
       offset_points="0.5791622,-0.88663373 | 1.5019032,-2.7403207 | 2.4637091,1.6849014"
       not_jump="false"
       sort_points="true"
       interpolator_type="CentripetalCatmullRom"
       interpolator_beta="0.2"
       start_linecap_type="zerowidth"
       linejoin_type="round"
       miter_limit="4"
       scale_width="1"
       end_linecap_type="zerowidth" /><linearGradient
       id="linearGradient7702"
       inkscape:swatch="solid"><stop
         style="stop-color:#000000;stop-opacity:1;"
         offset="0"
         id="stop7700" /></linearGradient><inkscape:path-effect
       effect="powerstroke"
       id="path-effect16090-2-2"
       is_visible="true"
       lpeversion="1"
       offset_points="0.16070944,0.38601298 | 0.49276721,0.55908271 | 0.88854039,0.26993362"
       not_jump="false"
       sort_points="true"
       interpolator_type="CentripetalCatmullRom"
       interpolator_beta="0.2"
       start_linecap_type="zerowidth"
       linejoin_type="round"
       miter_limit="4"
       scale_width="1"
       end_linecap_type="zerowidth" /><inkscape:path-effect
       effect="powerstroke"
       id="path-effect16090-2-2-1"
       is_visible="true"
       lpeversion="1"
       offset_points="0.16070944,0.29800499 | 0.49276721,0.43161615 | 0.88854039,0.20839083"
       not_jump="false"
       sort_points="true"
       interpolator_type="CentripetalCatmullRom"
       interpolator_beta="0.2"
       start_linecap_type="zerowidth"
       linejoin_type="round"
       miter_limit="4"
       scale_width="1"
       end_linecap_type="zerowidth" /><inkscape:path-effect
       effect="powerstroke"
       id="path-effect16090-2-2-1-0"
       is_visible="true"
       lpeversion="1"
       offset_points="0.16070944,0.18967644 | 0.49276721,0.27471827 | 0.88854039,0.13263815"
       not_jump="false"
       sort_points="true"
       interpolator_type="CentripetalCatmullRom"
       interpolator_beta="0.2"
       start_linecap_type="zerowidth"
       linejoin_type="round"
       miter_limit="4"
       scale_width="1"
       end_linecap_type="zerowidth" /><inkscape:path-effect
       effect="powerstroke"
       id="path-effect16090-2-2-1-0-1"
       is_visible="true"
       lpeversion="1"
       offset_points="0.16070944,0.22306476 | 0.49276721,0.32307632 | 0.88854039,0.15598616"
       not_jump="false"
       sort_points="true"
       interpolator_type="CentripetalCatmullRom"
       interpolator_beta="0.2"
       start_linecap_type="zerowidth"
       linejoin_type="round"
       miter_limit="4"
       scale_width="1"
       end_linecap_type="zerowidth" /><inkscape:path-effect
       effect="powerstroke"
       id="path-effect16090-2-2-1-3"
       is_visible="true"
       lpeversion="1"
       offset_points="0.16070944,0.32684347 | 0.49276721,0.47338442 | 0.88854039,0.22855719"
       not_jump="false"
       sort_points="true"
       interpolator_type="CentripetalCatmullRom"
       interpolator_beta="0.2"
       start_linecap_type="zerowidth"
       linejoin_type="round"
       miter_limit="4"
       scale_width="1"
       end_linecap_type="zerowidth" /><inkscape:path-effect
       effect="powerstroke"
       id="path-effect16090-2-2-4"
       is_visible="true"
       lpeversion="1"
       offset_points="0.16070944,0.409806 | 0.49276721,0.59354339 | 0.88854039,0.28657175"
       not_jump="false"
       sort_points="true"
       interpolator_type="CentripetalCatmullRom"
       interpolator_beta="0.2"
       start_linecap_type="zerowidth"
       linejoin_type="round"
       miter_limit="4"
       scale_width="1"
       end_linecap_type="zerowidth" /></defs><g
     inkscape:label="Layer 1"
     inkscape:groupmode="layer"
     id="layer1"><path
       style="font-variation-settings:'wdth' 75, 'wght' 700;opacity:1;fill:#ff4040;fill-opacity:0.860577;fill-rule:nonzero;stroke:none;stroke-width:0.429906;stroke-opacity:1"
       d="m 25.285345,176.80532 c 0.890488,-1.55615 2.648206,-4.48761 5.024155,-7.28867 1.796826,-2.11832 3.85624,-4.0706 6.307202,-5.75149 0.773306,-0.53033 1.563934,-1.01887 2.372541,-1.46926 1.704878,-0.94961 3.628389,-1.85229 5.850215,-2.62369 3.028637,-1.05151 6.562227,-1.84153 10.765839,-2.19118 12.147839,-0.52173 23.904118,0.24002 34.963628,1.01888 11.236425,0.79133 20.971525,1.52581 29.697575,1.07156 0.0663,-0.003 0.13251,-0.007 0.19863,-0.0106 4.19969,-0.2279 8.17573,-0.72283 11.85645,-1.67032 3.63408,-0.93549 7.01778,-2.32085 10.09614,-4.37097 3.049,-2.03057 5.84668,-4.74537 8.29711,-8.39391 2.46216,-3.66602 4.54513,-8.23359 6.1634,-13.87977 1.71291,-4.86843 2.7704,-9.10012 3.50849,-13.28653 0.67809,-3.84607 1.10348,-7.79155 1.381,-11.6189 0.051,-0.70287 0.0994,-1.42506 0.14721,-2.16895 0.34736,-5.400775 0.61566,-10.815272 1.44541,-18.125176 1.13128,-9.966366 2.9462,-19.683793 4.59961,-26.737801 -2.02397,7.102449 -4.71314,16.321912 -6.78252,26.389762 -1.447,7.039847 -2.27373,13.014428 -2.64311,18.245055 -0.0532,0.75295 -0.0964,1.48471 -0.13034,2.19503 -0.19441,4.06857 -0.0779,7.62822 -0.0204,11.65873 0.0591,4.13948 0.0451,8.51751 -0.64483,13.65514 -1.13139,5.81676 -2.77613,10.74652 -4.95472,14.90106 -2.17784,4.15311 -4.88025,7.51309 -8.09378,10.19021 -3.25051,2.70792 -6.94896,4.65361 -10.9734,6.01042 -4.05523,1.36719 -8.40626,2.12436 -12.88698,2.47541 -0.0706,0.006 -0.14128,0.011 -0.21203,0.0163 -9.16963,0.69275 -19.41587,-0.18399 -30.487762,-1.23381 -11.066184,-1.04928 -22.528542,-2.22002 -34.430527,-2.19423 -3.920846,-0.16382 -7.266053,0.0367 -10.187866,0.57359 -2.147098,0.39453 -4.048359,0.96816 -5.737206,1.69456 -0.799597,0.34392 -1.589111,0.72859 -2.368236,1.15737 -2.471923,1.36036 -4.626605,3.04773 -6.563585,4.96655 -2.577021,2.55285 -4.527681,5.29898 -5.557333,6.79558 z"
       id="path8520"
       sodipodi:nodetypes="cssc"
       inkscape:path-effect="#path-effect9278"
       inkscape:original-d="m 25.285345,176.80532 c 6.550805,-10.42115 14.596533,-16.89658 30.367089,-17.25597 48.276166,-1.10014 90.611136,17.85819 101.656066,-28.20023 4.67902,-19.51196 -0.45318,-29.25223 10.65145,-72.040537" /><path
       style="font-variation-settings:'wdth' 75, 'wght' 700;opacity:1;fill:#00c8c8;fill-opacity:1;fill-rule:nonzero;stroke:none;stroke-width:0.423333;stroke-opacity:1"
       d="m 193.25185,97.256915 c -0.91857,1.782048 -2.2806,5.235865 -4.16288,9.511845 -1.35772,3.08435 -3.05682,6.51359 -5.53376,9.57451 -1.2089,1.49391 -2.57773,2.8716 -4.15647,4.10464 -1.66374,1.29944 -3.50381,2.3936 -5.53652,3.28788 -1.57267,0.69189 -3.21761,1.24505 -4.91491,1.67776 -3.44195,0.87751 -7.34255,1.27563 -11.72255,1.24163 -11.91661,0.1387 -23.36353,-1.13008 -33.93793,-2.24432 -9.68621,-1.02065 -20.22989,-2.12198 -29.469703,-1.48508 -0.05077,0.004 -0.101546,0.007 -0.152318,0.0107 -4.289326,0.30524 -8.607719,1.01752 -12.67419,2.4 -3.824866,1.30035 -7.409144,3.18647 -10.581329,5.87298 -3.060074,2.59156 -5.665148,5.86569 -7.779145,9.97018 -2.082155,4.04266 -3.677306,8.86845 -4.790505,14.62072 -0.665785,5.04374 -0.739683,9.33528 -0.758384,13.41646 -0.01931,4.21356 0.01246,7.90446 -0.311174,12.04753 -0.03908,0.50029 -0.08331,1.01106 -0.13283,1.53229 -0.484629,5.10052 -1.451841,10.97084 -2.998458,17.86028 -2.222398,9.89971 -4.936363,18.91038 -6.956904,25.91218 1.599515,-6.92792 3.365637,-16.53345 4.555044,-26.32718 0.889381,-7.32329 1.212196,-12.37112 1.695991,-17.78679 0.046,-0.5149 0.09253,-1.0192 0.140265,-1.51347 0.373846,-3.87102 0.933049,-7.97318 1.737417,-11.95859 0.827508,-4.10007 1.940066,-8.24737 3.635272,-13.03733 1.610232,-5.60129 3.657089,-10.09193 6.045889,-13.67482 2.414592,-3.62158 5.145618,-6.26737 8.072403,-8.22426 3.026835,-2.02379 6.317123,-3.34624 9.77009,-4.22914 3.691317,-0.94383 7.637179,-1.4005 11.661772,-1.61852 1.48e-4,-1e-5 0.142674,-0.008 0.142814,-0.008 8.576143,-0.45237 19.115543,0.22929 28.799713,0.71183 10.65911,0.5311 22.29881,0.97228 34.38136,0.1634 4.51875,-0.38515 8.51075,-1.16158 12.02168,-2.27875 1.73502,-0.55209 3.40989,-1.21696 5.00757,-2.0177 2.06534,-1.03512 3.9183,-2.25541 5.58149,-3.67018 1.57694,-1.3414 2.92801,-2.81045 4.10925,-4.37827 2.41261,-3.20218 4.03602,-6.72421 5.3145,-9.84005 1.77883,-4.33524 3.05741,-7.804305 3.89744,-9.624695 z"
       id="path8520-5"
       sodipodi:nodetypes="cssc"
       inkscape:path-effect="#path-effect9280"
       inkscape:original-d="m 193.25185,97.256915 c -5.72145,11.720225 -7.49682,29.479915 -35.97951,30.603955 -47.88173,1.88961 -88.25351,-17.34209 -99.12958,28.01215 -4.60748,19.21363 -0.52602,28.56191 -11.46087,70.69605" /><text
       xml:space="preserve"
       style="font-style:normal;font-variant:normal;font-weight:normal;font-stretch:normal;font-size:7.80787px;font-family:'Ink Free';-inkscape-font-specification:'Ink Free';opacity:1;fill:#5a5a5a;fill-opacity:1;fill-rule:nonzero;stroke:#000000;stroke-width:0.349;stroke-dasharray:none;stroke-opacity:1"
       x="87.233597"
       y="174.98863"
       id="text13854"><tspan
         sodipodi:role="line"
         id="tspan13852"
         style="font-style:normal;font-variant:normal;font-weight:normal;font-stretch:normal;font-family:'Ink Free';-inkscape-font-specification:'Ink Free';fill:#5a5a5a;fill-opacity:1;stroke:#000000;stroke-width:0.349;stroke-dasharray:none;stroke-opacity:1"
         x="87.233597"
         y="174.98863">BHOPAL'23</tspan></text><path
       style="fill:#000000;fill-opacity:1;fill-rule:nonzero;stroke:none;stroke-width:0.479686;stroke-opacity:1"
       d="m 29.196677,175.59673 c 0.795812,0.58412 2.696091,2.0582 4.127784,3.05188 0.613315,0.42567 1.256468,0.85776 1.897361,1.27669 1.530239,1.00028 2.963082,1.87151 4.319586,2.66116 3.57e-4,2.1e-4 0.119995,0.0697 0.120352,0.0699 1.155028,0.66976 2.905832,1.64187 4.448945,2.50987 1.082815,0.60908 2.205793,1.24731 3.104539,1.7494 1.223914,0.68376 2.566468,1.37263 3.141828,1.69142 -0.526471,-0.39433 -1.70889,-1.33312 -2.85319,-2.14765 -0.840282,-0.59811 -1.908745,-1.33056 -2.947376,-2.02096 -1.592981,-1.05888 -3.066675,-1.98816 -4.327808,-2.74382 -2.2e-5,-2e-5 -0.119487,-0.0714 -0.119509,-0.0715 -1.289373,-0.76945 -2.857713,-1.66677 -4.385661,-2.52475 -0.654307,-0.36741 -1.350778,-0.75511 -1.993096,-1.10648 -1.524877,-0.83417 -3.668729,-1.91956 -4.533755,-2.39521 z"
       id="path15062-5-4"
       sodipodi:nodetypes="cc"
       inkscape:original-d="m 29.196677,175.59673 c 10.334413,6.59435 11.274927,6.61228 21.160395,13.01034"
       inkscape:path-effect="#path-effect16090-2-2" /><path
       style="fill:#000000;fill-opacity:1;fill-rule:nonzero;stroke:none;stroke-width:0.370321;stroke-opacity:1"
       d="m 34.861689,169.75364 c 0.614373,0.45095 2.081403,1.58895 3.186681,2.35607 0.473484,0.32863 0.970003,0.6622 1.464778,0.98562 1.181356,0.77222 2.287521,1.44481 3.334753,2.05443 2.76e-4,1.6e-4 0.09264,0.0538 0.09291,0.054 0.891683,0.51706 2.243332,1.26754 3.434619,1.93763 0.835942,0.47022 1.70289,0.96294 2.396728,1.35056 0.944871,0.52787 1.981333,1.05968 2.425515,1.30579 -0.406439,-0.30443 -1.319276,-1.02918 -2.202684,-1.658 -0.648705,-0.46175 -1.473566,-1.02721 -2.275397,-1.5602 -1.229794,-0.81747 -2.367496,-1.53488 -3.341101,-2.11825 -1.7e-5,-1e-5 -0.09225,-0.0552 -0.09226,-0.0552 -0.995406,-0.59403 -2.206177,-1.28677 -3.385764,-1.94913 -0.50513,-0.28364 -1.042812,-0.58295 -1.538685,-0.85421 -1.177217,-0.64398 -2.832287,-1.48191 -3.500094,-1.84912 z"
       id="path15062-5-4-7"
       sodipodi:nodetypes="cc"
       inkscape:original-d="m 34.861689,169.75364 c 7.978246,5.09089 8.704331,5.10472 16.335987,10.04408"
       inkscape:path-effect="#path-effect16090-2-2-1" /><path
       style="fill:#000000;fill-opacity:1;fill-rule:nonzero;stroke:none;stroke-width:0.235705;stroke-opacity:1"
       d="m 41.642304,165.35653 c 0.391041,0.28702 1.324787,1.01135 2.028283,1.49961 0.301366,0.20917 0.617395,0.42148 0.932313,0.62734 0.751918,0.49151 1.455979,0.9196 2.122528,1.30762 1.76e-4,1e-4 0.05896,0.0342 0.05914,0.0344 0.567548,0.3291 1.427849,0.80677 2.186092,1.23328 0.532066,0.29929 1.083868,0.61289 1.525487,0.85961 0.601399,0.33598 1.261094,0.67447 1.54381,0.83112 -0.258693,-0.19376 -0.839703,-0.65506 -1.40198,-1.0553 -0.412893,-0.2939 -0.937906,-0.6538 -1.448262,-0.99305 -0.782748,-0.5203 -1.506881,-0.97693 -2.126569,-1.34824 -1e-5,0 -0.05871,-0.0351 -0.05872,-0.0351 -0.633564,-0.37809 -1.404203,-0.81901 -2.154996,-1.2406 -0.321509,-0.18054 -0.663737,-0.37104 -0.979355,-0.5437 -0.749284,-0.40988 -1.802715,-0.94322 -2.227766,-1.17694 z"
       id="path15062-5-4-7-8"
       sodipodi:nodetypes="cc"
       inkscape:original-d="m 41.642304,165.35653 c 5.078055,3.24029 5.540198,3.2491 10.397651,6.39294"
       inkscape:path-effect="#path-effect16090-2-2-1-0" /><path
       style="fill:#000000;fill-opacity:1;fill-rule:nonzero;stroke:none;stroke-width:0.509252;stroke-opacity:1"
       d="m 188.42419,108.02079 c -0.84486,-0.62013 -2.86227,-2.18507 -4.38221,-3.23999 -0.65112,-0.45191 -1.33392,-0.91063 -2.01431,-1.35539 -1.62456,-1.06193 -3.14572,-1.98686 -4.58584,-2.82518 -3.8e-4,-2.2e-4 -0.12739,-0.074 -0.12777,-0.0742 -1.22622,-0.711048 -3.08495,-1.743075 -4.72318,-2.664576 -1.14956,-0.646626 -2.34175,-1.324193 -3.29589,-1.857239 -1.29936,-0.725904 -2.72467,-1.45723 -3.33549,-1.795674 0.55892,0.418637 1.81422,1.415296 3.02906,2.280023 0.89207,0.634987 2.02639,1.412584 3.12904,2.145536 1.69118,1.124151 3.25571,2.11071 4.59457,2.91295 3e-5,1e-5 0.12686,0.0759 0.12688,0.0759 1.36885,0.81688 3.03386,1.76951 4.65599,2.68038 0.69463,0.39005 1.43404,0.80164 2.11594,1.17467 1.61887,0.88559 3.89487,2.03788 4.81321,2.54285 z"
       id="path15062-5-4-9"
       sodipodi:nodetypes="cc"
       inkscape:original-d="m 188.42419,108.02079 c -10.9714,-7.00081 -11.9699,-7.01985 -22.46469,-13.812279"
       inkscape:path-effect="#path-effect16090-2-2-4" /><path
       style="fill:#000000;fill-opacity:1;fill-rule:nonzero;stroke:none;stroke-width:0.406157;stroke-opacity:1"
       d="m 183.31892,114.49107 c -0.67383,-0.49459 -2.28282,-1.74271 -3.49506,-2.58407 -0.5193,-0.36043 -1.06387,-0.72628 -1.60653,-1.081 -1.29568,-0.84695 -2.50889,-1.58463 -3.65746,-2.25324 -3e-4,-1.8e-4 -0.1016,-0.059 -0.10191,-0.0592 -0.97797,-0.56709 -2.46042,-1.3902 -3.76699,-2.12515 -0.91684,-0.51572 -1.86768,-1.05611 -2.62866,-1.48125 -1.03631,-0.57895 -2.17307,-1.16222 -2.66024,-1.43215 0.44577,0.33389 1.44694,1.12878 2.41584,1.81845 0.71148,0.50644 1.61617,1.12661 2.49559,1.71118 1.34881,0.89658 2.5966,1.68341 3.66443,2.32324 2e-5,1e-5 0.10117,0.0605 0.10119,0.0605 1.09173,0.65151 2.41967,1.41128 3.71341,2.13775 0.55401,0.31109 1.14373,0.63936 1.68759,0.93687 1.29114,0.7063 3.10637,1.62532 3.8388,2.02806 z"
       id="path15062-5-4-7-9"
       sodipodi:nodetypes="cc"
       inkscape:original-d="m 183.31892,114.49107 c -8.75031,-5.58354 -9.54667,-5.59871 -17.91685,-11.01606"
       inkscape:path-effect="#path-effect16090-2-2-1-3" /><path
       style="fill:#000000;fill-opacity:1;fill-rule:nonzero;stroke:none;stroke-width:0.277195;stroke-opacity:1"
       d="m 176.52481,120.69197 c -0.45987,-0.33755 -1.55799,-1.18937 -2.38531,-1.76359 -0.35442,-0.24598 -0.72608,-0.49567 -1.09643,-0.73776 -0.88428,-0.57803 -1.71227,-1.08149 -2.49615,-1.5378 -2.1e-4,-1.2e-4 -0.0693,-0.0403 -0.0695,-0.0404 -0.66745,-0.38703 -1.67919,-0.94878 -2.57091,-1.45037 -0.62572,-0.35197 -1.27466,-0.72078 -1.79401,-1.01093 -0.70727,-0.39512 -1.48309,-0.7932 -1.81557,-0.97742 0.30423,0.22787 0.98752,0.77037 1.64877,1.24106 0.48557,0.34564 1.10301,0.7689 1.7032,1.16785 0.92053,0.6119 1.77214,1.1489 2.5009,1.58557 2e-5,1e-5 0.069,0.0413 0.0691,0.0413 0.74508,0.44464 1.65138,0.96318 2.53433,1.45898 0.3781,0.21231 0.78057,0.43635 1.15175,0.6394 0.88117,0.48204 2.12004,1.10925 2.61991,1.38412 z"
       id="path15062-5-4-7-8-5"
       sodipodi:nodetypes="cc"
       inkscape:original-d="m 176.52481,120.69197 c -5.97193,-3.81068 -6.51542,-3.82103 -12.22793,-7.51828"
       inkscape:path-effect="#path-effect16090-2-2-1-0-1" /><g
       aria-label="AIIM"
       id="text21525"
       style="font-size:25.1289px;font-family:'Alfa Slab One';-inkscape-font-specification:'Alfa Slab One';opacity:1;fill:#5a5a5a;fill-opacity:1;stroke:#000000;stroke-width:0.0273577;stroke-dasharray:none;stroke-opacity:1"
       transform="matrix(0.76760687,0,0,0.76760687,35.329986,58.610761)"><path
         id="path21577"
         d="m 48.616255,103.25766 c 2.613432,6.11608 2.775509,11.72551 -1.606039,17.88208 0.05265,-0.003 -1.198418,0.0723 -1.145906,0.0691 -0.848433,1.6371 -1.994829,3.42221 -3.480733,5.25941 3.053943,-0.19899 6.109216,-0.27044 9.238208,-0.2462 1.153252,0.009 2.310493,0.031 3.473817,0.0645 0.618053,-1.88527 1.051423,-3.77771 1.311171,-5.65025 -0.668902,0.0231 -1.32871,0.0509 -1.9795,0.084 0.33695,-0.89761 0.619294,-1.79819 0.851214,-2.69941 1.41161,-0.13191 2.877866,-0.23256 4.4006,-0.31798 0.168654,0.94004 0.308074,1.88978 0.419714,2.84614 -0.697956,0.011 -1.387668,0.0233 -2.070458,0.0398 -0.207872,1.91371 -0.57669,3.84131 -1.11511,5.75855 1.917186,0.0731 3.841,0.1731 5.777575,0.28986 1.374356,0.083 2.748917,0.1741 4.126627,0.26984 0.760412,0.0533 1.520896,0.10804 2.282775,0.16368 0.945603,0.0691 1.891157,0.14038 2.837971,0.21336 0.150503,-2.20604 0.206737,-4.42555 0.170436,-6.64699 -0.491633,-0.0147 -0.98231,-0.0284 -1.47229,-0.0407 -0.428106,-1.65268 -0.900323,-3.29277 -1.422681,-4.91183 -1.253193,-3.90011 -2.810126,-7.72024 -4.779824,-11.32529 -1.303142,-2.37692 -2.794051,-4.681464 -4.500498,-6.853384 -0.377685,0.113723 -0.752867,0.230648 -1.125497,0.351013 h -1e-6 c -3.469229,1.120381 -6.637513,2.538871 -9.179316,4.535491 h 1e-6 c -0.352238,0.27662 -0.690296,0.56509 -1.012286,0.86508 l -4e-6,-1e-5 -4e-6,-1e-5 2.1e-5,1e-4 1.7e-5,6e-5 z m 20.330951,-7.813359 c 0.74325,2.229687 1.384428,4.473943 1.928758,6.718249 0.617585,-0.0684 1.238223,-0.13161 1.861882,-0.19 1.431601,6.23074 2.222336,12.56553 2.404317,18.76884 -0.61861,-0.0236 -1.235876,-0.0459 -1.852215,-0.0666 0.04869,2.24103 0.0094,4.47979 -0.119525,6.70518 4.835977,0.37875 9.813026,0.80054 14.650049,1.12858 -0.06549,-2.39828 -0.17245,-4.80583 -0.319685,-7.21574 -0.62874,-0.0275 -1.257147,-0.0558 -1.884859,-0.0846 -0.378883,-6.54446 -1.106279,-13.21359 -2.188018,-19.83065 0.646374,-0.0169 1.29371,-0.0311 1.942257,-0.0436 -0.372213,-2.435489 -0.787883,-4.879578 -1.248362,-7.322282 -5.174483,0.207754 -10.248736,0.614634 -15.174621,1.432472 -3e-6,-4e-6 -5e-6,-7e-6 -5e-6,-1.1e-5 l -1e-5,-2.5e-5 2.6e-5,1.66e-4 1.1e-5,4.1e-5 z m 16.802629,-1.491439 c 0.431755,2.45407 0.824046,4.909015 1.177829,7.355288 0.05011,-7.2e-4 1.450345,-0.0185 1.500439,-0.019 -0.0046,4e-5 0.452872,-0.004 0.448174,-0.004 0.394863,2.93452 0.745286,5.86971 1.051109,8.79221 0.396729,3.79123 0.720882,7.58473 0.96979,11.35541 0.173938,0.007 -0.607729,-0.0246 -0.433781,-0.0176 -0.48461,-0.0187 -0.968938,-0.038 -1.453103,-0.0582 0.15341,2.42173 0.270759,4.84152 0.350837,7.25285 0.493742,0.0316 0.987342,0.062 1.480827,0.0915 1.581608,0.0943 3.162195,0.17708 4.740709,0.244 -8.06e-4,-3e-5 0.418947,0.0174 0.418141,0.0174 0.801148,0.0326 1.601596,0.061 2.401219,0.0846 1.848955,0.0546 3.699975,0.0883 5.544175,0.0862 -0.22923,-2.46188 -0.45209,-4.9261 -0.66661,-7.38774 -0.6213,-0.004 -1.24351,-0.009 -1.86705,-0.0169 -0.56232,-6.74177 -1.11867,-13.56052 -1.628343,-20.34222 0.0642,0.002 1.879123,0.0448 1.943223,0.0464 -0.15812,-2.475058 -0.30346,-4.957556 -0.43375,-7.442591 -1.97939,-0.06214 -3.956695,-0.106941 -5.933348,-0.130359 -0.776457,-0.0092 -1.552343,-0.01499 -2.327714,-0.01728 -0.929122,-0.0027 -1.857334,-3.52e-4 -2.784778,0.0077 -0.978079,0.01222 -1.955113,0.03077 -2.931249,0.05627 -0.522404,0.01362 -1.044676,0.02879 -1.566836,0.04574 l 1.2e-5,4e-5 c -6e-6,-1.5e-5 -1e-5,-3.4e-5 -1.6e-5,-5.1e-5 l 1.31e-4,3.05e-4 -3.7e-5,-1.63e-4 z m 17.184715,0.09329 c 0.0939,2.480678 0.20956,4.958794 0.34406,7.429088 -0.18688,-0.005 2.12136,0.0625 1.93448,0.0571 0.28354,6.73723 0.77176,13.50503 1.40803,20.20345 -0.61601,0.008 -1.23405,0.0115 -1.85317,0.0129 0.22231,2.45725 0.45833,4.91679 0.70643,7.37483 4.17327,-0.0522 8.3044,-0.30996 12.32362,-0.94837 -0.43104,-2.32345 -0.79667,-4.65152 -1.09445,-6.98126 -0.56713,0.0602 -1.13687,0.11445 -1.70906,0.1634 -0.6008,-4.95576 -0.94682,-9.95349 -1.0034,-14.95579 1.80093,6.00537 3.83805,11.88314 6.49216,17.24704 0.60413,1.22443 1.24438,2.42713 1.92668,3.60427 0.656,-0.16042 1.308,-0.33332 1.95573,-0.51952 1.09797,-0.3156 2.18158,-0.67247 3.24344,-1.07655 -0.0143,-7.06947 0.73518,-13.6542 3.70411,-19.90358 -0.19638,4.24412 0.10097,8.19226 0.15877,11.97884 -0.47943,0.2025 -0.96677,0.39446 -1.46115,0.57664 0.3906,1.86835 0.93905,3.70362 1.64243,5.50382 0.94158,-0.51053 1.7984,-0.94467 2.84346,-1.51672 3.57065,-1.92574 4.51637,-2.77812 8.0139,-5.10714 0.0872,-0.0581 0.1964,-0.14863 0.15962,-0.25283 -0.21797,-0.61746 -1.04608,-2.48555 -1.25501,-3.27307 -0.51473,0.3556 -0.69698,0.48392 -1.26602,0.72008 -0.45718,-2.89395 0.0816,-6.32049 1.48081,-11.30991 0.51456,-0.0451 1.84782,0.11413 2.81233,0.0164 0.0653,-0.007 0.0979,-0.075 0.12115,-0.12594 0.88417,-1.9418 1.64782,-4.084219 2.35735,-6.846415 -3.85244,0.134395 -6.88137,0.05861 -10.78697,-0.121278 -2.04007,-0.0942 -4.08543,-0.216384 -6.13709,-0.351167 -2.81299,4.053579 -4.69325,8.1649 -5.99932,12.35353 -0.51183,-2.04402 -0.94386,-4.15482 -1.32095,-6.31521 -0.37958,-2.153529 -0.70144,-4.359354 -0.99137,-6.611466 0.0516,0.0035 -1.49527,-0.09929 -1.44368,-0.09581 -5.76221,-0.374879 -11.51368,-0.720405 -17.30661,-0.929344 0,-3e-6 0,-7e-6 2e-5,-1.1e-5 l -1.2e-4,-1.5e-5 1.1e-4,1.15e-4 -3.2e-4,10e-7 z M 56.006543,107.59366 c 0.09936,-0.0305 0.199207,-0.0606 0.299523,-0.0907 1.056605,2.06172 1.886334,4.25652 2.518307,6.51944 -0.983163,0.12075 -1.93521,0.25218 -2.854589,0.40023 0.275363,-2.2554 0.274223,-4.53907 0.03676,-6.82901 l 8e-6,5e-5 -8e-6,-3e-5 z"
         style="fill:#5a5a5a;fill-opacity:1;stroke:#000000;stroke-width:0.0273577;stroke-dasharray:none;stroke-opacity:1"
         sodipodi:nodetypes="ccccccccccccccscccccssssscsscccccccccccscsccccscccccccccccccssccccccccccccccsccccccccccccccccccsccsscccsscscccccscccccsccccccs" /></g></g></svg>
